<svg width="98" height="116" viewBox="0 0 98 116" fill="none" xmlns="http://www.w3.org/2000/svg">
<path d="M73.8829 114.696H40.1706L4.53177 93.8261L1 58.8294L16.4114 28.0067L42.097 2L79.9833 25.1171L97 57.8662L93.1472 83.5518L73.8829 114.696Z" fill="#FF9823"/>
<path d="M80.6712 24.8502L97.8519 57.5582L93.8607 84.4966L74.2034 115.482H39.7103L39.3099 115.256L3.84602 95.2252L0.171219 59.1509L0.391922 58.7017L15.6029 27.6324L15.7933 27.4351L41.8236 0.402893L80.6712 24.8502ZM34.4827 74.0386L27.3665 95.3892L40.9974 111.982H71.765L77.4534 78.7476L62.5345 65.2916L34.4827 74.0386ZM32.8656 107.596L24.5199 97.4361L13.2708 96.5289L32.8656 107.596ZM80.9866 78.8482L76.4378 105.424L90.5062 83.2496L93.3841 63.8277L80.9866 78.8482ZM7.08723 92.5191L24.1741 93.898L30.9339 73.6168L4.00325 62.2339L7.08723 92.5191ZM65.0775 62.8707L79.1546 75.5699L93.9456 57.649L79.4808 30.1089L65.0775 62.8707ZM18.5042 29.6636L4.347 58.5797L33.1966 70.774L61.6849 61.8902L77.1312 26.7564L42.3695 4.88141L18.5042 29.6636Z" fill="black"/>
<path d="M41.9395 11.9395C42.5252 11.3537 43.4748 11.3537 44.0606 11.9395C44.6463 12.5252 44.6463 13.4748 44.0606 14.0606L29.0606 29.0606C28.4748 29.6463 27.5252 29.6463 26.9395 29.0606C26.3537 28.4748 26.3537 27.5252 26.9395 26.9395L41.9395 11.9395Z" fill="white" fill-opacity="0.38"/>
<path d="M21.6582 33.3291C22.0287 32.5881 22.9299 32.2877 23.6709 32.6582C24.4119 33.0287 24.7123 33.9299 24.3418 34.6709L18.3418 46.6709C17.9713 47.4119 17.0701 47.7123 16.3291 47.3418C15.5881 46.9713 15.2877 46.0701 15.6582 45.3291L21.6582 33.3291Z" fill="white" fill-opacity="0.38"/>
</svg>
