<svg width="116" height="117" viewBox="0 0 116 117" fill="none" xmlns="http://www.w3.org/2000/svg">
<path d="M86.4535 79.7476L80.765 112.982H49.9974L36.3666 96.3892L43.4828 75.0386L71.5345 66.2916L86.4535 79.7476ZM33.5199 98.4361L41.8656 108.596L22.2709 97.5289L33.5199 98.4361ZM99.5062 84.2496L85.4379 106.424L89.9867 79.8482L102.384 64.8277L99.5062 84.2496ZM39.934 74.6168L33.1742 94.898L16.0873 93.5191L13.0033 63.2339L39.934 74.6168ZM102.946 58.649L88.1547 76.5699L74.0775 63.8707L88.4808 31.1089L102.946 58.649ZM86.1312 27.7564L70.6849 62.8902L42.1967 71.774L13.347 59.5797L27.5043 30.6636L51.3695 5.88141L86.1312 27.7564Z" fill="#f7c13d"/>
</svg>
