<svg version="1.0" xmlns="http://www.w3.org/2000/svg" width="32" height="32" viewBox="200 200 500 500" preserveAspectRatio="xMidYMid meet">
  <g transform="translate(0.000000,900.000000) scale(0.100000,-0.100000)" fill="#ca791a" stroke="none">
    <path d="M4535 6541 c-58 -33 -311 -161 -320 -161 -6 0 -61 -24 -151 -66 -28 -13 -54 -24 -57 -24 -4 0 -40 -16 -81 -35 -41 -19 -78 -35 -81 -35 -4 0 -69 -25 -144 -55 -76 -30 -144 -55 -151 -55 -7 0 -50 -14 -94 -31 -92 -35 -119 -45 -231 -83 -101 -35 -169 -56 -220 -66 -22 -4 -74 -19 -115 -32 -118 -38 -115 -26 -116 -408 -2 -361 8 -555 37 -737 11 -71 24 -156 30 -191 5 -35 14 -72 19 -82 6 -10 10 -29 10 -42 0 -23 51 -211 75 -278 7 -19 18 -53 25 -75 13 -41 53 -136 70 -167 6 -10 10 -23 10 -29 0 -17 120 -260 151 -306 16 -23 29 -46 29 -51 0 -5 20 -37 45 -71 25 -34 45 -64 45 -69 0 -4 20 -30 45 -59 25 -28 45 -55 45 -59 0 -4 13 -22 29 -38 16 -17 59 -64 95 -103 77 -84 270 -263 284 -263 5 0 16 -7 23 -17 18 -21 184 -145 274 -204 171 -112 214 -139 220 -139 4 0 27 -13 52 -30 24 -16 48 -30 54 -30 5 0 26 -10 47 -23 60 -38 180 -97 195 -97 13 0 114 49 168 82 13 8 107 63 209 123 102 59 214 129 248 154 35 25 83 60 107 76 204 142 485 422 640 639 11 15 34 47 51 70 17 23 45 69 63 103 17 34 51 97 76 139 25 41 45 78 45 81 0 3 13 33 28 67 45 96 58 127 75 186 9 30 30 99 47 153 16 54 30 107 30 119 0 11 5 39 12 61 18 59 -2 70 -112 63 -50 -4 -91 -2 -100 4 -13 8 -15 47 -15 247 l0 238 -180 0 c-99 0 -185 4 -190 7 -16 10 -19 504 -4 514 7 4 78 6 158 4 193 -5 210 -5 217 3 7 7 5 432 -2 451 -9 24 -141 72 -294 106 -19 5 -60 18 -90 30 -30 12 -66 24 -80 27 -14 3 -34 12 -45 19 -11 8 -34 14 -52 14 -17 0 -34 4 -37 9 -3 4 -34 18 -68 31 -35 12 -68 26 -73 31 -6 4 -29 12 -50 18 -38 9 -72 21 -195 71 -30 13 -89 37 -130 53 -41 17 -84 37 -95 44 -11 7 -26 13 -33 13 -17 0 -119 51 -306 153 -75 41 -112 43 -171 8z"/>
    <path d="M5683 4748 c-15 -18 -39 -38 -52 -44 -35 -15 -50 -86 -44 -202 6 -95 13 -112 77 -184 19 -22 99 -31 211 -24 50 2 95 5 102 5 6 1 34 28 62 62 l51 61 0 111 c0 124 -3 131 -77 205 l-41 42 -130 0 -130 0 -29 -32z"/>
    <path d="M6693 5743 c-113 -3 -134 -6 -142 -21 -14 -27 -18 -259 -5 -272 8 -8 65 -13 164 -14 129 -2 152 0 159 13 5 9 7 76 6 150 -2 132 -8 155 -40 149 -5 -1 -70 -4 -142 -5z"/>
    <path d="M6285 5320 c-7 -11 -8 -337 -1 -348 9 -15 319 -17 347 -2 18 10 19 23 19 175 0 120 -3 166 -12 172 -15 8 -348 12 -353 3z"/>
    <path d="M6988 5292 c-7 -33 -1 -322 7 -325 8 -3 266 -1 308 2 4 1 7 68 7 151 0 188 10 179 -183 179 -75 0 -138 -3 -139 -7z"/>
    <path d="M6648 4669 c-15 -9 -11 -279 4 -296 8 -10 30 -12 88 -7 49 4 96 2 129 -6 81 -19 82 -16 79 164 l-3 151 -143 0 c-79 0 -149 -3 -154 -6z"/>
  </g>
</svg>
